<?xml version="1.0" encoding="UTF-8"?>
<svg id="Layer_1" data-name="Layer 1" xmlns="http://www.w3.org/2000/svg" width="367" height="209" version="1.1" xmlns:xlink="http://www.w3.org/1999/xlink" viewBox="0 0 367 209">
  <defs>
    <style>
      .cls-1 {
        font-family: Poppins-BoldItalic, Poppins;
        font-size: 284.2px;
        font-style: italic;
        font-weight: 700;
      }

      .cls-1, .cls-2, .cls-3 {
        fill: #fff;
      }

      .cls-4 {
        fill: none;
        stroke: url(#linear-gradient);
      }

      .cls-4, .cls-2, .cls-3 {
        stroke-miterlimit: 10;
      }

      .cls-2 {
        font-size: 40.1px;
      }

      .cls-2, .cls-3 {
        font-family: MyriadPro-Regular, 'Myriad Pro';
        stroke: #000;
      }

      .cls-3 {
        font-size: 98.4px;
      }
    </style>
    <linearGradient id="linear-gradient" x1="-16.2" y1="169.6" x2="610.7" y2="169.6" gradientUnits="userSpaceOnUse">
      <stop offset="0" stop-color="#f5ff99"/>
      <stop offset=".6" stop-color="#ee7e3b"/>
      <stop offset="1" stop-color="#ea2b00"/>
    </linearGradient>
  </defs>
  <text class="cls-3" transform="translate(130 133.7) scale(1.5 1)"><tspan x="0" y="0">G</tspan></text>
  <text class="cls-2" transform="translate(227.4 122.2)"><tspan x="0" y="0">1image</tspan></text>
  <g>
    <text class="cls-1" transform="translate(-16.2 204.6) scale(1.8 1)"><tspan x="0" y="0">C</tspan></text>
    <text class="cls-1" transform="translate(-16.2 204.6) scale(1.8 1)"><tspan x="0" y="0">C</tspan></text>
    <path class="cls-4" d="M46,51.9c20.1-15.4,45-27.5,74.8-36.1,29.7-8.6,61.9-12.9,96.4-12.9s76.5,6.3,102.7,18.8c26.2,12.5,41,29.6,44.4,51.1h-95.3c-4.4-8.1-12.4-14.4-24.1-18.6-11.7-4.3-26-6.4-42.9-6.4-26.7,0-49.9,5.2-69.5,15.5-19.6,10.3-32.1,24.1-37.5,41.3-1.7,5.3-2.5,9.9-2.5,13.9,0,13.3,6.6,23.8,19.8,31.5,13.2,7.8,31.3,11.7,54.3,11.7s32-2.2,46.4-6.5c14.4-4.4,26.5-10.6,36.3-18.8h95.3c-16.9,21.6-42.4,38.6-76.6,51-34.2,12.4-72.4,18.6-114.6,18.6s-57-3.3-79.6-9.9c-22.7-6.6-40.1-16-52.2-28.1-12.2-12.1-18.3-26.2-18.3-42.3s1.2-14.2,3.5-21c6.1-19.7,19.2-37.3,39.3-52.7Z"/>
  </g>
</svg>