<?xml version="1.0" encoding="UTF-8"?>
<svg id="Layer_1" data-name="Layer 1" xmlns="http://www.w3.org/2000/svg" baseProfile="tiny" version="1.2" viewBox="0 0 1920 1080">
  <path d="M268.25,487.73c10.05-6.9,22.51-12.27,37.39-16.12,14.87-3.85,30.92-5.77,48.16-5.77,21.12,0,38.23,2.79,51.33,8.38,13.09,5.58,20.49,13.2,22.18,22.84h-47.65c-2.2-3.64-6.21-6.41-12.04-8.31-5.83-1.9-12.97-2.86-21.42-2.86-13.35,0-24.93,2.31-34.73,6.92-9.8,4.61-16.06,10.77-18.76,18.46-.85,2.37-1.27,4.44-1.27,6.22,0,5.92,3.3,10.62,9.89,14.09,6.59,3.47,15.63,5.2,27.12,5.2,8.28,0,16.01-.97,23.19-2.92,7.18-1.94,13.22-4.74,18.12-8.38h47.65c-8.45,9.64-21.21,17.24-38.27,22.78-17.07,5.54-36.16,8.31-57.28,8.31-15.21,0-28.48-1.48-39.79-4.44-11.32-2.96-20.02-7.15-26.11-12.56-6.08-5.41-9.12-11.72-9.12-18.91,0-3.21.59-6.35,1.77-9.39,3.04-8.8,9.59-16.64,19.64-23.54Z" fill="#000" stroke-width="0"/>
  <path d="M461.38,487.73c10.05-6.9,22.6-12.27,37.64-16.12,15.04-3.85,31.34-5.77,48.92-5.77,21.29,0,38.4,2.58,51.33,7.74,12.93,5.16,19.98,12.31,21.16,21.45h-47.65c-2.2-2.96-6.04-5.22-11.53-6.79-5.49-1.56-12.21-2.35-20.15-2.35-14.03,0-26.07,2.31-36.12,6.92-10.06,4.61-16.44,10.77-19.14,18.46-.85,2.54-1.27,4.74-1.27,6.6,0,6.26,3.63,11.08,10.9,14.47,7.26,3.38,17.57,5.08,30.92,5.08,10.81,0,20.36-1.37,28.64-4.12,8.28-2.75,14.95-6.66,20.02-11.74h-54.75l5.32-15.86h94.29l-7.1,20.18c-5.07,5.42-12.29,10.45-21.67,15.1-9.38,4.65-20.49,8.42-33.33,11.29-12.84,2.88-26.7,4.31-41.57,4.31s-28.86-1.5-40.43-4.5c-11.58-3-20.45-7.21-26.61-12.63-6.17-5.41-9.25-11.72-9.25-18.91,0-2.45.59-5.54,1.77-9.26,3.04-8.8,9.59-16.64,19.64-23.54Z" fill="#000" stroke-width="0"/>
  <path d="M641.98,486.14l7.1-20.18h70.21l-31.68,89.98h-45.12l24.59-69.8h-25.09Z" fill="#000" stroke-width="0"/>
  <path d="M789.75,485.13l-24.84,70.81h-43.34l24.84-70.81h43.34ZM754.9,475.04c-3.97-1.82-5.96-4.12-5.96-6.92,0-3.81,2.95-7.06,8.87-9.77,5.91-2.71,13.09-4.06,21.54-4.06,6.76,0,12.08.91,15.97,2.73,3.88,1.82,5.83,4.17,5.83,7.04,0,3.72-2.96,6.94-8.87,9.65-5.92,2.71-13.01,4.06-21.29,4.06-6.76,0-12.13-.91-16.09-2.73Z" fill="#000" stroke-width="0"/>
  <path d="M1037.76,490.39c8.53,4.02,12.8,9.62,12.8,16.81,0,2.2-.51,4.65-1.52,7.36l-14.7,41.37h-43.09l13.69-38.45c.34-.84.51-1.99.51-3.43,0-3.55-1.99-6.26-5.96-8.12-3.97-1.86-9.5-2.79-16.6-2.79-8.45,0-15.55,1.25-21.29,3.74-5.75,2.5-9.38,6.03-10.9,10.6l-13.69,38.45h-43.09l13.69-38.45c.34-.84.51-1.99.51-3.43,0-3.55-1.99-6.26-5.96-8.12-3.97-1.86-9.5-2.79-16.6-2.79-8.45,0-15.55,1.25-21.29,3.74-5.75,2.5-9.38,6.03-10.9,10.6v-.63l-13.69,39.09h-43.34l24.84-70.81h43.34l-3.04,9.01c5.41-3.05,11.95-5.44,19.64-7.17,7.69-1.73,16.01-2.6,24.97-2.6,10.81,0,19.98,1.14,27.5,3.43,7.52,2.28,12.88,5.58,16.1,9.9,6.25-3.98,14.02-7.19,23.32-9.65,9.29-2.45,19.01-3.68,29.15-3.68,15.21,0,27.08,2.01,35.61,6.03Z" fill="#000" stroke-width="0"/>
  <path d="M1083.76,501.25c7.43-5.5,16.39-9.73,26.87-12.69,10.47-2.96,21.54-4.44,33.2-4.44,9.97,0,18.33,1.02,25.09,3.05,6.76,2.03,11.66,4.7,14.7,8l3.55-10.03h43.34l-25.09,70.81h-43.34l3.8-10.03c-5.41,3.3-12.25,5.96-20.53,8-8.28,2.03-17.41,3.05-27.38,3.05s-18.8-1.14-26.49-3.43c-7.69-2.28-13.65-5.52-17.87-9.71-4.23-4.19-6.34-9.12-6.34-14.78,0-2.71.51-5.58,1.52-8.63,2.53-7.28,7.52-13.66,14.95-19.16ZM1175.52,516.35c0-4.14-2.41-7.4-7.22-9.77-4.82-2.37-10.94-3.55-18.38-3.55-8.62,0-16.48,1.54-23.57,4.63-7.1,3.09-11.58,7.34-13.43,12.75-.51,1.52-.76,2.92-.76,4.19,0,4.15,2.41,7.42,7.22,9.84s10.86,3.62,18.12,3.62c8.62,0,16.48-1.56,23.57-4.7,7.1-3.13,11.66-7.4,13.69-12.82.51-1.52.76-2.92.76-4.19Z" fill="#000" stroke-width="0"/>
  <path d="M1341.28,487.16c6.93,2.03,11.74,4.7,14.45,8l3.55-10.03h43.34l-24.84,70.69c-2.37,6.51-7.06,12.42-14.07,17.7-7.01,5.29-16.39,9.5-28.13,12.63-11.75,3.13-25.39,4.7-40.94,4.7-20.95,0-37.09-2.47-48.41-7.42-11.32-4.95-16.39-11.66-15.21-20.11h42.84c.51,2.71,3,4.84,7.48,6.41,4.48,1.56,10.43,2.35,17.87,2.35,8.96,0,16.56-1.29,22.81-3.87,6.25-2.58,10.39-6.71,12.42-12.37l3.55-10.03c-5.41,3.3-12.21,5.99-20.4,8.06-8.2,2.07-17.28,3.11-27.25,3.11s-18.8-1.14-26.49-3.43c-7.69-2.28-13.69-5.54-18-9.77-4.31-4.23-6.46-9.18-6.46-14.85,0-2.62.51-5.46,1.52-8.5,2.53-7.28,7.52-13.66,14.95-19.16,7.43-5.5,16.39-9.73,26.87-12.69,10.47-2.96,21.54-4.44,33.2-4.44,9.97,0,18.42,1.02,25.35,3.05ZM1347.62,516.35c0-4.14-2.41-7.4-7.22-9.77-4.82-2.37-10.94-3.55-18.38-3.55-8.62,0-16.48,1.54-23.57,4.63-7.1,3.09-11.58,7.34-13.43,12.75-.51,1.52-.76,2.92-.76,4.19,0,4.15,2.41,7.42,7.22,9.84s10.86,3.62,18.12,3.62c8.62,0,16.48-1.56,23.57-4.7,7.1-3.13,11.66-7.4,13.69-12.82.51-1.52.76-2.92.76-4.19Z" fill="#000" stroke-width="0"/>
  <path d="M1540.63,491.54c10.73,4.95,16.1,11.7,16.1,20.24,0,2.79-.42,5.29-1.27,7.49-.68,1.95-1.69,4.02-3.04,6.22h-98.09c-.17.51-.25,1.31-.25,2.41,0,3.72,2.03,6.56,6.08,8.5,4.06,1.95,9.46,2.92,16.22,2.92,10.81,0,19.09-2.28,24.84-6.85h46.13c-6.08,7.19-15.97,13.07-29.66,17.64-13.69,4.57-29.07,6.85-46.13,6.85-18.25,0-32.82-2.54-43.72-7.61-10.9-5.08-16.35-11.97-16.35-20.69,0-2.62.51-5.33,1.52-8.12,2.53-7.36,7.77-13.79,15.71-19.29,7.94-5.5,17.83-9.73,29.66-12.69,11.83-2.96,24.75-4.44,38.78-4.44,18.25,0,32.74,2.47,43.47,7.42ZM1513.38,512.03c0-3.38-2.12-5.98-6.34-7.81-4.23-1.82-9.8-2.73-16.73-2.73-7.44,0-13.98,1.12-19.64,3.36-5.66,2.24-9.76,5.44-12.29,9.58h54.5c.34-1.18.51-1.99.51-2.41Z" fill="#000" stroke-width="0"/>
</svg>