<?xml version="1.0" encoding="UTF-8"?>
<svg id="Layer_1" data-name="Layer 1" xmlns="http://www.w3.org/2000/svg" baseProfile="tiny" version="1.2" viewBox="0 0 1920 1080">
  <path d="M737.66,487.73c10.05-6.9,22.51-12.27,37.39-16.12,14.87-3.85,30.92-5.77,48.16-5.77,21.12,0,38.23,2.79,51.33,8.38,13.09,5.58,20.49,13.2,22.18,22.84h-47.65c-2.2-3.64-6.21-6.41-12.04-8.31-5.83-1.9-12.97-2.86-21.42-2.86-13.35,0-24.93,2.31-34.72,6.92-9.8,4.61-16.06,10.77-18.76,18.46-.85,2.37-1.27,4.44-1.27,6.22,0,5.92,3.3,10.62,9.89,14.09,6.59,3.47,15.63,5.2,27.12,5.2,8.28,0,16.01-.97,23.19-2.92,7.18-1.94,13.22-4.74,18.12-8.38h47.65c-8.45,9.64-21.21,17.24-38.27,22.78-17.07,5.54-36.16,8.31-57.28,8.31-15.21,0-28.47-1.48-39.79-4.44-11.32-2.96-20.02-7.15-26.11-12.56-6.08-5.41-9.12-11.72-9.12-18.91,0-3.21.59-6.35,1.77-9.39,3.04-8.8,9.59-16.64,19.64-23.54Z" fill="#f6f2e7" stroke-width="0"/>
  <path d="M930.8,487.73c10.05-6.9,22.6-12.27,37.64-16.12,15.04-3.85,31.34-5.77,48.92-5.77,21.29,0,38.4,2.58,51.33,7.74,12.93,5.16,19.98,12.31,21.16,21.45h-47.65c-2.2-2.96-6.04-5.22-11.53-6.79-5.49-1.56-12.21-2.35-20.15-2.35-14.03,0-26.07,2.31-36.12,6.92-10.06,4.61-16.44,10.77-19.14,18.46-.85,2.54-1.27,4.74-1.27,6.6,0,6.26,3.63,11.08,10.9,14.47,7.26,3.38,17.57,5.08,30.92,5.08,10.81,0,20.36-1.37,28.64-4.12,8.28-2.75,14.96-6.66,20.02-11.74h-54.75l5.32-15.86h94.29l-7.1,20.18c-5.07,5.42-12.29,10.45-21.67,15.1-9.38,4.65-20.49,8.42-33.33,11.29-12.84,2.88-26.7,4.31-41.57,4.31s-28.86-1.5-40.43-4.5c-11.58-3-20.45-7.21-26.61-12.63-6.17-5.41-9.25-11.72-9.25-18.91,0-2.45.59-5.54,1.77-9.26,3.04-8.8,9.59-16.64,19.64-23.54Z" fill="#f6f2e7" stroke-width="0"/>
</svg>