<?xml version="1.0" encoding="UTF-8"?>
<svg id="Layer_1" data-name="Layer 1" xmlns="http://www.w3.org/2000/svg" width="1589" height="220" version="1.1" xmlns:xlink="http://www.w3.org/1999/xlink" viewBox="0 0 1589 220">
  <defs>
    <style>
      .cls-1 {
        fill: url(#linear-gradient);
        fill-rule: evenodd;
      }

      .cls-1, .cls-2 {
        stroke-width: 0px;
      }

      .cls-2 {
        fill: url(#linear-gradient-2);
      }
    </style>
    <linearGradient id="linear-gradient" x1="590.9" y1="-255.3" x2="800.7" y2="-255.3" gradientTransform="translate(1923.8 805.2) rotate(-90) scale(1 4.4)" gradientUnits="userSpaceOnUse">
      <stop offset="0" stop-color="#8f5e25"/>
      <stop offset=".5" stop-color="#fbf4a1"/>
      <stop offset="1" stop-color="#8f5e25"/>
    </linearGradient>
    <linearGradient id="linear-gradient-2" x1="-181.8" y1="753.5" x2="-181.5" y2="753.5" gradientTransform="translate(420704.5 174551.5) scale(2312.1 -231.5)" xlink:href="#linear-gradient"/>
  </defs>
  <g id="SvgjsG1082">
    <path class="cls-1" d="M458.4,213.7L4,108.6,458.4,4,73.9,108.6l384.5,105.1ZM1024.7,214l559.3-104.5L989.8,4.3l524.3,105.1-489.4,104.6Z"/>
  </g>
  <path class="cls-2" d="M467.2,151l.2,29.2-6.5.3c0,0-5.7.2-16.8.2s-12.6,0-20.9-.2c-13.5-.3-24.2-6.8-32-19.4-7.7-12.6-12-30.8-12-51.5s4.3-38.9,12.1-51.6c7.7-12.5,18.7-19.2,31.9-19.3,24.8-.2,37.5,0,37.6,0h6.5c0,.1-.1,29.3-.1,29.3h-6.5c-.1-.1-12.8-.3-37.4-.1-19.2.2-31.1,16.2-31.1,41.7s2.2,20.7,6.6,27.8c5.5,8.9,13.9,13.7,24.5,13.9,24.6.5,37.2,0,37.3,0l6.5-.3ZM574.1,110.1c-.1,17.1,0,55.6,0,56v14.7s-44,0-44,0c-13.2,0-24.3-6.7-32-19.3-7.7-12.6-12-31-12-51.6s2.9-32.6,8.3-44.7c7.8-17.4,20.1-26.4,35.7-26.2,9.5.2,37.2,0,37.5,0h6.5s0,29.1,0,29.1h-6.5c-.3,0-28,.2-37.6,0-11.9-.2-21.3,6.1-26.5,17.7-3,6.6-4.5,14.7-4.5,24,0,25.7,11.9,41.7,31,41.7h31c0-8,0-18.1,0-27.1h-25v-29.2h38.1v14.8ZM612.5,37.7v142.8s-13,0-13,0v-113.3l-6.4.2-.2-29.2,19.5-.6ZM644.1,180.8h-13V39h13v141.8ZM707.2,106l44.4-66.7v141.2h-13.1v-86.2l-31.3,47-31.3-47v86.2h-13.1V39.3l44.4,66.7ZM815.8,26.2l51.2,153h-16.5l-14.3-42.7h-40.8l-14.1,42.7h-16.3l50.8-153ZM805.2,107.1h21.2l-10.6-31.8-10.6,31.8ZM957.3,110.1c-.1,17.1,0,55.6,0,56v14.7s-44,0-44,0c-13.2,0-24.3-6.7-32-19.3-7.7-12.6-12-31-12-51.6s2.9-32.6,8.3-44.7c7.8-17.4,20.1-26.4,35.7-26.2,9.5.2,37.2,0,37.5,0h6.5s0,29.1,0,29.1h-6.5c-.3,0-28,.2-37.6,0-11.9-.2-21.3,6.1-26.5,17.7-3,6.6-4.5,14.7-4.5,24,0,25.7,11.9,41.7,31,41.7h31c0-8,0-18.1,0-27.1h-25v-29.2h38.1v14.8ZM1065,66.9h-75.8v27.4l50.5.4v29.5s-50.5-.4-50.5-.4v27.3h75.8v29.5h-88.9V37.4h88.9v29.5h0Z"/>
</svg>