<?xml version="1.0" encoding="UTF-8"?>
<svg id="Layer_1" data-name="Layer 1" xmlns="http://www.w3.org/2000/svg" width="2329" height="237" version="1.1" viewBox="0 0 2329 237">
  <defs>
    <style>
      .cls-1 {
        fill: #fff;
        stroke-width: 0px;
      }
    </style>
  </defs>
  <g id="SvgjsG1084">
    <path class="cls-1" d="M308.3,188.2l.8,43.7-21.8.4c-.3,0-19.3.3-56.5.3s-42.4,0-70.5-.3c-45.4-.4-81.6-10.2-107.8-29.1-26-18.8-40.3-46.2-40.3-77.1s14.4-58.3,40.7-77.2c26-18.8,63.2-28.8,107.6-29,83.5-.3,126.3,0,126.7,0l21.9.2-.3,43.7-21.9-.2c-.4,0-43-.3-126.2,0-64.6.3-104.7,24.2-104.7,62.5s7.5,31,22.2,41.6c18.4,13.3,47,20.5,82.6,20.8,83,.7,125.5,0,125.9,0l21.8-.4ZM668.9,127c-.4,25.7,0,83.3,0,83.9v22c.1,0-148.3,0-148.3,0-44.6,0-82-10-107.9-28.9-26.1-18.9-40.4-46.4-40.4-77.3s9.7-48.8,28-67c26.2-26,67.9-39.6,120.5-39.2,32.1.2,125.3,0,126.3,0h21.9c0,0,.1,43.6.1,43.6h-21.9c-.9,0-94.4.3-126.7,0-40.2-.3-71.9,9.1-89.4,26.5-10,9.9-15.1,22-15.1,36,0,38.5,40.1,62.5,104.6,62.5h104.5c0-12,0-27.1,0-40.6h-84.2v-43.7h128.4l-.3,22.2ZM798.3,18.5v213.9s-43.7,0-43.7,0V62.7l-21.6.3-.6-43.7,65.8-.8ZM904.7,232.8h-43.7V20.4h43.7v212.4ZM1117.6,120.7l149.8-99.9v211.5h-44.1V103.3l-105.7,70.5-105.7-70.5v129h-44.1V20.8l149.8,99.9ZM1483.8,1.3l172.5,229.2h-55.5l-48.2-63.9h-137.6l-47.5,63.9h-54.9L1483.8,1.3ZM1448.1,122.5h71.4l-35.7-47.6-35.7,47.6ZM1960.9,127c-.4,25.7,0,83.3,0,83.9v22c.1,0-148.3,0-148.3,0-44.6,0-82-10-107.9-28.9-26.1-18.9-40.4-46.4-40.4-77.3s9.7-48.8,28-67c26.2-26,67.9-39.6,120.5-39.2,32.1.2,125.3,0,126.3,0h21.9c0,0,.1,43.6.1,43.6h-21.9c-.9,0-94.4.3-126.7,0-40.2-.3-71.9,9.1-89.4,26.5-10,9.9-15.1,22-15.1,36,0,38.5,40.1,62.5,104.6,62.5h104.5c0-12,0-27.1,0-40.6h-84.2v-43.7h128.4l-.3,22.2ZM2324.1,62.2h-255.5v41.1l170.4.6-.2,44.1-170.3-.6v41h255.5v44.1h-299.6V18.1h299.6v44.1h0Z"/>
  </g>
</svg>