<?xml version="1.0" encoding="UTF-8"?>
<svg id="Layer_1" data-name="Layer 1" xmlns="http://www.w3.org/2000/svg" width="400" height="99" version="1.1" viewBox="0 0 400 99">
  <path d="M8.5,24.6c3-4.9,6.8-8.6,11.3-11.3,4.5-2.7,9.3-4.1,14.6-4.1s11.5,1.9,15.5,5.9c4,3.9,6.2,9.3,6.7,16.1h-14.4c-.7-2.6-1.9-4.5-3.6-5.8-1.8-1.3-3.9-2-6.5-2-4,0-7.5,1.6-10.5,4.9-3,3.2-4.9,7.6-5.7,13-.3,1.7-.4,3.1-.4,4.4,0,4.2,1,7.5,3,9.9,2,2.4,4.7,3.7,8.2,3.7s4.9-.7,7-2c2.2-1.4,4-3.3,5.5-5.9h14.4c-2.6,6.8-6.4,12.1-11.6,16-5.2,3.9-10.9,5.8-17.3,5.8s-8.6-1-12-3.1c-3.4-2.1-6.1-5-7.9-8.8-1.8-3.8-2.8-8.3-2.8-13.3s.2-4.5.5-6.6c.9-6.2,2.9-11.7,5.9-16.6h0Z" fill="#f9f7f7" stroke-width="0"/>
  <path d="M66.9,24.6c3-4.9,6.8-8.6,11.4-11.3,4.5-2.7,9.5-4.1,14.8-4.1s11.6,1.8,15.5,5.5c3.9,3.6,6,8.7,6.4,15.1h-14.4c-.7-2.1-1.8-3.7-3.5-4.8s-3.7-1.6-6.1-1.6c-4.2,0-7.9,1.6-10.9,4.9-3,3.2-5,7.6-5.8,13-.3,1.8-.4,3.3-.4,4.6,0,4.4,1.1,7.8,3.3,10.2,2.2,2.4,5.3,3.6,9.3,3.6s6.2-1,8.7-2.9c2.5-1.9,4.5-4.7,6.1-8.3h-16.5l1.6-11.2h28.5l-2.1,14.2c-1.5,3.8-3.7,7.4-6.5,10.6-2.8,3.3-6.2,5.9-10.1,8-3.9,2-8.1,3-12.6,3s-8.7-1-12.2-3.2c-3.5-2.1-6.2-5.1-8-8.9-1.9-3.8-2.8-8.3-2.8-13.3s.2-3.9.5-6.5c.9-6.2,2.9-11.7,5.9-16.6h0Z" fill="#f9f7f7" stroke-width="0"/>
  <path d="M121.5,23.4l2.1-14.2h21.2l-9.6,63.4h-13.6l7.4-49.2h-7.6Z" fill="#f9f7f7" stroke-width="0"/>
  <path d="M166.2,22.7l-7.5,49.9h-13.1l7.5-49.9h13.1ZM155.6,15.6c-1.2-1.3-1.8-2.9-1.8-4.9s.9-5,2.7-6.9c1.8-1.9,4-2.9,6.5-2.9s3.7.6,4.8,1.9c1.2,1.3,1.8,2.9,1.8,4.9s-.9,4.9-2.7,6.8c-1.8,1.9-3.9,2.9-6.4,2.9s-3.7-.6-4.9-1.9h0Z" fill="#f9f7f7" stroke-width="0"/>
  <path d="M241.1,26.4c2.6,2.8,3.9,6.8,3.9,11.8s-.2,3.3-.5,5.2l-4.4,29.2h-13l4.1-27.1c.1-.6.2-1.4.2-2.4,0-2.5-.6-4.4-1.8-5.7s-2.9-1.9-5-1.9-4.7.9-6.4,2.6c-1.7,1.8-2.8,4.2-3.3,7.5l-4.1,27.1h-13l4.1-27.1c.1-.6.2-1.4.2-2.4,0-2.5-.6-4.4-1.8-5.7-1.2-1.3-2.9-1.9-5-1.9s-4.7.9-6.4,2.6c-1.7,1.8-2.8,4.2-3.3,7.5v-.4l-4.1,27.5h-13.1l7.5-49.9h13.1l-.9,6.3c1.6-2.2,3.6-3.8,5.9-5.1,2.3-1.2,4.9-1.8,7.6-1.8s6,.8,8.3,2.4c2.3,1.6,3.9,3.9,4.9,7,1.9-2.8,4.2-5.1,7-6.8s5.7-2.6,8.8-2.6c4.6,0,8.2,1.4,10.8,4.2h0Z" fill="#f9f7f7" stroke-width="0"/>
  <path d="M255,34.1c2.2-3.9,5-6.8,8.1-8.9,3.2-2.1,6.5-3.1,10-3.1s5.5.7,7.6,2.2c2,1.4,3.5,3.3,4.4,5.6l1.1-7.1h13.1l-7.6,49.9h-13.1l1.1-7.1c-1.6,2.3-3.7,4.2-6.2,5.6-2.5,1.4-5.3,2.2-8.3,2.2s-5.7-.8-8-2.4c-2.3-1.6-4.1-3.9-5.4-6.8-1.3-2.9-1.9-6.4-1.9-10.4s.2-3.9.5-6.1c.8-5.1,2.3-9.6,4.5-13.5h0ZM282.8,44.7c0-2.9-.7-5.2-2.2-6.9-1.5-1.7-3.3-2.5-5.6-2.5s-5,1.1-7.1,3.2c-2.1,2.2-3.5,5.2-4.1,9-.2,1.1-.2,2-.2,2.9,0,2.9.7,5.2,2.2,6.9,1.4,1.7,3.3,2.6,5.5,2.6s5-1.1,7.1-3.3,3.5-5.2,4.1-9c.2-1.1.2-2,.2-2.9h0Z" fill="#f9f7f7" stroke-width="0"/>
  <path d="M332.9,24.1c2.1,1.4,3.5,3.3,4.4,5.6l1.1-7.1h13.1l-7.5,49.8c-.7,4.6-2.1,8.8-4.2,12.5-2.1,3.7-5,6.7-8.5,8.9s-7.7,3.3-12.4,3.3-11.2-1.7-14.6-5.2c-3.4-3.5-5-8.2-4.6-14.2h13c.2,1.9.9,3.4,2.2,4.5,1.4,1.1,3.2,1.6,5.4,1.6s5-.9,6.9-2.7c1.9-1.8,3.1-4.7,3.8-8.7l1.1-7.1c-1.6,2.3-3.7,4.2-6.2,5.7-2.5,1.5-5.2,2.2-8.2,2.2s-5.7-.8-8-2.4c-2.3-1.6-4.1-3.9-5.4-6.9-1.3-3-1.9-6.5-1.9-10.4s.2-3.9.5-6c.8-5.1,2.3-9.6,4.5-13.5,2.2-3.9,5-6.8,8.1-8.9,3.2-2.1,6.5-3.1,10-3.1s5.6.7,7.7,2.2h0ZM334.8,44.7c0-2.9-.7-5.2-2.2-6.9-1.5-1.7-3.3-2.5-5.6-2.5s-5,1.1-7.1,3.2c-2.1,2.2-3.5,5.2-4.1,9-.2,1.1-.2,2-.2,2.9,0,2.9.7,5.2,2.2,6.9,1.4,1.7,3.3,2.6,5.5,2.6s5-1.1,7.1-3.3,3.5-5.2,4.1-9c.2-1.1.2-2,.2-2.9h0Z" fill="#f9f7f7" stroke-width="0"/>
  <path d="M393.1,27.3c3.2,3.5,4.9,8.2,4.9,14.3s-.1,3.7-.4,5.3c-.2,1.4-.5,2.8-.9,4.4h-29.7c0,.3,0,.9,0,1.7,0,2.6.6,4.6,1.8,6,1.2,1.4,2.9,2,4.9,2,3.3,0,5.8-1.6,7.5-4.8h13.9c-1.8,5.1-4.8,9.2-9,12.4-4.1,3.2-8.8,4.8-13.9,4.8s-9.9-1.8-13.2-5.4-5-8.4-5-14.6.2-3.8.5-5.7c.8-5.2,2.3-9.7,4.8-13.6,2.4-3.9,5.4-6.8,9-8.9,3.6-2.1,7.5-3.1,11.7-3.1s9.9,1.7,13.1,5.2h0ZM384.9,41.7c0-2.4-.6-4.2-1.9-5.5s-3-1.9-5.1-1.9-4.2.8-5.9,2.4c-1.7,1.6-3,3.8-3.7,6.8h16.5c.1-.8.2-1.4.2-1.7h0Z" fill="#f9f7f7" stroke-width="0"/>
</svg>