<?xml version="1.0" encoding="UTF-8"?>
<svg id="Layer_1" data-name="Layer 1" xmlns="http://www.w3.org/2000/svg" width="400" height="300" version="1.1" viewBox="0 0 400 300">
  <path d="M8.5,84.4c3-6.3,6.8-11.1,11.3-14.7,4.5-3.5,9.3-5.3,14.6-5.3s11.5,2.5,15.5,7.6c4,5.1,6.2,12,6.7,20.8h-14.4c-.7-3.3-1.9-5.8-3.6-7.6-1.8-1.7-3.9-2.6-6.5-2.6-4,0-7.5,2.1-10.5,6.3-3,4.2-4.9,9.8-5.7,16.8-.3,2.2-.4,4-.4,5.6,0,5.4,1,9.7,3,12.8,2,3.1,4.7,4.8,8.2,4.8s4.9-.9,7-2.6c2.2-1.8,4-4.3,5.5-7.6h14.4c-2.6,8.8-6.4,15.7-11.6,20.7-5.2,5-10.9,7.6-17.3,7.6s-8.6-1.3-12-4c-3.4-2.7-6.1-6.5-7.9-11.4-1.8-4.9-2.8-10.7-2.8-17.2s.2-5.8.5-8.6c.9-8,2.9-15.2,5.9-21.4h0Z" style="fill: #f9f7f7; stroke-width: 0px;"/>
  <path d="M66.9,84.4c3-6.3,6.8-11.1,11.4-14.7,4.5-3.5,9.5-5.3,14.8-5.3s11.6,2.3,15.5,7c3.9,4.7,6,11.2,6.4,19.5h-14.4c-.7-2.7-1.8-4.8-3.5-6.2-1.7-1.4-3.7-2.1-6.1-2.1-4.2,0-7.9,2.1-10.9,6.3-3,4.2-5,9.8-5.8,16.8-.3,2.3-.4,4.3-.4,6,0,5.7,1.1,10.1,3.3,13.1,2.2,3.1,5.3,4.6,9.3,4.6s6.2-1.2,8.7-3.7c2.5-2.5,4.5-6,6.1-10.7h-16.5l1.6-14.4h28.5l-2.1,18.3c-1.5,4.9-3.7,9.5-6.5,13.7-2.8,4.3-6.2,7.7-10.1,10.3-3.9,2.6-8.1,3.9-12.6,3.9s-8.7-1.3-12.2-4.1c-3.5-2.7-6.2-6.5-8-11.5-1.9-4.9-2.8-10.7-2.8-17.2s.2-5,.5-8.4c.9-8,2.9-15.2,5.9-21.4h0Z" style="fill: #f9f7f7; stroke-width: 0px;"/>
  <path d="M121.5,83l2.1-18.3h21.2l-9.6,81.8h-13.6l7.4-63.5h-7.6Z" style="fill: #f9f7f7; stroke-width: 0px;"/>
  <path d="M166.2,82l-7.5,64.4h-13.1l7.5-64.4h13.1ZM155.6,72.9c-1.2-1.7-1.8-3.7-1.8-6.3s.9-6.4,2.7-8.9c1.8-2.5,4-3.7,6.5-3.7s3.7.8,4.8,2.5c1.2,1.7,1.8,3.8,1.8,6.4s-.9,6.3-2.7,8.8c-1.8,2.5-3.9,3.7-6.4,3.7s-3.7-.8-4.9-2.5h0Z" style="fill: #f9f7f7; stroke-width: 0px;"/>
  <path d="M241.1,86.8c2.6,3.6,3.9,8.7,3.9,15.3s-.2,4.3-.5,6.7l-4.4,37.6h-13l4.1-35c.1-.8.2-1.8.2-3.1,0-3.2-.6-5.7-1.8-7.4s-2.9-2.5-5-2.5-4.7,1.1-6.4,3.4c-1.7,2.3-2.8,5.5-3.3,9.6l-4.1,35h-13l4.1-35c.1-.8.2-1.8.2-3.1,0-3.2-.6-5.7-1.8-7.4-1.2-1.7-2.9-2.5-5-2.5s-4.7,1.1-6.4,3.4c-1.7,2.3-2.8,5.5-3.3,9.6v-.6l-4.1,35.5h-13.1l7.5-64.4h13.1l-.9,8.2c1.6-2.8,3.6-4.9,5.9-6.5,2.3-1.6,4.9-2.3,7.6-2.3s6,1.1,8.3,3.1c2.3,2.1,3.9,5.1,4.9,9,1.9-3.6,4.2-6.5,7-8.8s5.7-3.4,8.8-3.4c4.6,0,8.2,1.8,10.8,5.5h0Z" style="fill: #f9f7f7; stroke-width: 0px;"/>
  <path d="M255,96.7c2.2-5,5-8.8,8.1-11.5,3.2-2.7,6.5-4,10-4s5.5,1,7.6,2.8c2,1.8,3.5,4.3,4.4,7.3l1.1-9.1h13.1l-7.6,64.4h-13.1l1.1-9.1c-1.6,3-3.7,5.4-6.2,7.3-2.5,1.8-5.3,2.8-8.3,2.8s-5.7-1.1-8-3.1c-2.3-2.1-4.1-5-5.4-8.8-1.3-3.8-1.9-8.3-1.9-13.4s.2-5.1.5-7.8c.8-6.6,2.3-12.4,4.5-17.4h0ZM282.8,110.4c0-3.7-.7-6.7-2.2-8.9-1.5-2.2-3.3-3.2-5.6-3.2s-5,1.4-7.1,4.2c-2.1,2.8-3.5,6.7-4.1,11.6-.2,1.4-.2,2.6-.2,3.8,0,3.7.7,6.8,2.2,8.9,1.4,2.2,3.3,3.3,5.5,3.3s5-1.4,7.1-4.3,3.5-6.7,4.1-11.6c.2-1.4.2-2.6.2-3.8h0Z" style="fill: #f9f7f7; stroke-width: 0px;"/>
  <path d="M332.9,83.9c2.1,1.8,3.5,4.3,4.4,7.3l1.1-9.1h13.1l-7.5,64.3c-.7,5.9-2.1,11.3-4.2,16.1-2.1,4.8-5,8.6-8.5,11.5s-7.7,4.3-12.4,4.3-11.2-2.2-14.6-6.8c-3.4-4.5-5-10.6-4.6-18.3h13c.2,2.5.9,4.4,2.2,5.8,1.4,1.4,3.2,2.1,5.4,2.1s5-1.2,6.9-3.5c1.9-2.3,3.1-6.1,3.8-11.2l1.1-9.1c-1.6,3-3.7,5.4-6.2,7.3-2.5,1.9-5.2,2.9-8.2,2.9s-5.7-1.1-8-3.1c-2.3-2.1-4.1-5-5.4-8.9-1.3-3.9-1.9-8.3-1.9-13.5s.2-5,.5-7.7c.8-6.6,2.3-12.4,4.5-17.4,2.2-5,5-8.8,8.1-11.5,3.2-2.7,6.5-4,10-4s5.6,1,7.7,2.8h0ZM334.8,110.4c0-3.7-.7-6.7-2.2-8.9-1.5-2.2-3.3-3.2-5.6-3.2s-5,1.4-7.1,4.2c-2.1,2.8-3.5,6.7-4.1,11.6-.2,1.4-.2,2.6-.2,3.8,0,3.7.7,6.8,2.2,8.9,1.4,2.2,3.3,3.3,5.5,3.3s5-1.4,7.1-4.3c2.1-2.9,3.5-6.7,4.1-11.6.2-1.4.2-2.6.2-3.8h0Z" style="fill: #f9f7f7; stroke-width: 0px;"/>
  <path d="M393.1,87.9c3.2,4.5,4.9,10.6,4.9,18.4s-.1,4.8-.4,6.8c-.2,1.8-.5,3.6-.9,5.6h-29.7c0,.4,0,1.2,0,2.2,0,3.4.6,6,1.8,7.7,1.2,1.8,2.9,2.6,4.9,2.6,3.3,0,5.8-2.1,7.5-6.2h13.9c-1.8,6.5-4.8,11.9-9,16.1-4.1,4.1-8.8,6.2-13.9,6.2s-9.9-2.3-13.2-6.9c-3.3-4.6-5-10.9-5-18.8s.2-4.9.5-7.4c.8-6.7,2.3-12.5,4.8-17.6,2.4-5,5.4-8.8,9-11.5,3.6-2.7,7.5-4,11.7-4s9.9,2.2,13.1,6.8h0ZM384.9,106.5c0-3.1-.6-5.4-1.9-7.1s-3-2.5-5.1-2.5-4.2,1-5.9,3.1c-1.7,2.1-3,4.9-3.7,8.7h16.5c.1-1.1.2-1.8.2-2.2h0Z" style="fill: #f9f7f7; stroke-width: 0px;"/>
</svg>