<?xml version="1.0" encoding="UTF-8"?>
<svg id="Layer_1" data-name="Layer 1" xmlns="http://www.w3.org/2000/svg" width="304" height="302" version="1.1" viewBox="0 0 304 302">
  <defs>
    <style>
      .cls-1 {
        fill: #fff;
        stroke-width: 0px;
      }
    </style>
  </defs>
  <path class="cls-1" d="M300.3,237.1l.8,60.5-21.8.5c-.3,0-19.3.4-56.5.4s-42.4-.1-70.5-.5c-45.4-.5-81.6-14.1-107.8-40.3C18.3,231.8,4,193.9,4,151.1s14.4-80.7,40.7-106.9C70.7,18.3,107.9,4.4,152.2,4.2c83.5-.4,126.3,0,126.7,0l21.9.2-.3,60.5-21.9-.2c-.4,0-43-.5-126.2,0-64.6.3-104.7,33.5-104.7,86.5s7.5,42.9,22.2,57.6c18.4,18.4,47,28.4,82.6,28.8,83,1,125.5,0,125.9,0l21.8-.5ZM299.7,152.2c-.3,18.4,0,59.5,0,59.9v15.7c.1,0-119.3,0-119.3,0-35.9,0-65.9-7.1-86.8-20.6-20.9-13.5-32.5-33.1-32.5-55.3s7.8-34.9,22.5-47.9c21.1-18.6,54.6-28.3,96.9-28,25.8.2,100.8,0,101.5,0h17.6s0,31.2,0,31.2h-17.6c-.8,0-75.9.2-101.9,0-32.3-.2-57.8,6.5-71.9,18.9-8,7.1-12.1,15.7-12.1,25.7,0,27.5,32.2,44.7,84.1,44.7h84c0-8.6,0-19.3,0-29h-67.7v-31.2h103.2l-.3,15.8Z"/>
</svg>